<svg width="284" height="58" viewBox="0 0 284 58" fill="none" xmlns="http://www.w3.org/2000/svg">
<path d="M30.0938 41.875L0.03125 29.3438V23L30.0938 10.4375V18.6875L11.5312 26.1562L30.0938 33.5938V41.875ZM57.0625 0.4375L42.0625 52.9688H32.5L47.5938 0.4375H57.0625ZM87.9375 16.7188H75.7188V12.9688C75.7188 11.2188 75.5625 10.1042 75.25 9.625C74.9375 9.14583 74.4167 8.90625 73.6875 8.90625C72.8958 8.90625 72.2917 9.22917 71.875 9.875C71.4792 10.5208 71.2812 11.5 71.2812 12.8125C71.2812 14.5 71.5104 15.7708 71.9688 16.625C72.4062 17.4792 73.6458 18.5104 75.6875 19.7188C81.5417 23.1979 85.2292 26.0521 86.75 28.2812C88.2708 30.5104 89.0312 34.1042 89.0312 39.0625C89.0312 42.6667 88.6042 45.3229 87.75 47.0312C86.9167 48.7396 85.2917 50.1771 82.875 51.3438C80.4583 52.4896 77.6458 53.0625 74.4375 53.0625C70.9167 53.0625 67.9062 52.3958 65.4062 51.0625C62.9271 49.7292 61.3021 48.0312 60.5312 45.9688C59.7604 43.9062 59.375 40.9792 59.375 37.1875V33.875H71.5938V40.0312C71.5938 41.9271 71.7604 43.1458 72.0938 43.6875C72.4479 44.2292 73.0625 44.5 73.9375 44.5C74.8125 44.5 75.4583 44.1562 75.875 43.4688C76.3125 42.7812 76.5312 41.7604 76.5312 40.4062C76.5312 37.4271 76.125 35.4792 75.3125 34.5625C74.4792 33.6458 72.4271 32.1146 69.1562 29.9688C65.8854 27.8021 63.7188 26.2292 62.6562 25.25C61.5938 24.2708 60.7083 22.9167 60 21.1875C59.3125 19.4583 58.9688 17.25 58.9688 14.5625C58.9688 10.6875 59.4583 7.85417 60.4375 6.0625C61.4375 4.27083 63.0417 2.875 65.25 1.875C67.4583 0.854167 70.125 0.34375 73.25 0.34375C76.6667 0.34375 79.5729 0.895833 81.9688 2C84.3854 3.10417 85.9792 4.5 86.75 6.1875C87.5417 7.85417 87.9375 10.6979 87.9375 14.7188V16.7188ZM121.438 10.5312V57.9062H108.812V48.6562C107.583 50.4479 106.448 51.5729 105.406 52.0312C104.385 52.5104 103.115 52.75 101.594 52.75C99.3854 52.75 97.5521 52.2292 96.0938 51.1875C94.6562 50.1458 93.6875 48.8021 93.1875 47.1562C92.6875 45.4896 92.4375 42.9479 92.4375 39.5312V21.25C92.4375 18.4375 92.625 16.3438 93 14.9688C93.375 13.5729 94.2708 12.3646 95.6875 11.3438C97.125 10.3021 98.8229 9.78125 100.781 9.78125C102.365 9.78125 103.823 10.1354 105.156 10.8438C106.49 11.5521 107.708 12.625 108.812 14.0625L109.031 10.5312H121.438ZM108.812 21.8125C108.812 19.9792 108.667 18.7396 108.375 18.0938C108.104 17.4479 107.604 17.125 106.875 17.125C106.167 17.125 105.688 17.4062 105.438 17.9688C105.188 18.5312 105.062 19.8125 105.062 21.8125V40.2812C105.062 42.5104 105.188 43.9271 105.438 44.5312C105.688 45.1146 106.198 45.4062 106.969 45.4062C107.698 45.4062 108.188 45.1042 108.438 44.5C108.688 43.875 108.812 42.5312 108.812 40.4688V21.8125ZM253.656 10.4375L283.719 22.9375V29.3125L253.656 41.875V33.625L272.219 26.1562L253.656 18.7188V10.4375Z" fill="#FF8303"/>
<path d="M139 1.40625V52H126V1.40625H139ZM154.844 26.5938H143V23.8125C143 20.6042 143.365 18.1354 144.094 16.4062C144.844 14.6562 146.333 13.1146 148.562 11.7812C150.792 10.4479 153.688 9.78125 157.25 9.78125C161.521 9.78125 164.74 10.5417 166.906 12.0625C169.073 13.5625 170.375 15.4167 170.812 17.625C171.25 19.8125 171.469 24.3333 171.469 31.1875V52H159.188V48.3125C158.417 49.7917 157.417 50.9062 156.188 51.6562C154.979 52.3854 153.531 52.75 151.844 52.75C149.635 52.75 147.604 52.1354 145.75 50.9062C143.917 49.6562 143 46.9375 143 42.75V39.3438C143 36.2396 143.49 34.125 144.469 33C145.448 31.875 147.875 30.5625 151.75 29.0625C155.896 27.4375 158.115 26.3438 158.406 25.7812C158.698 25.2188 158.844 24.0729 158.844 22.3438C158.844 20.1771 158.677 18.7708 158.344 18.125C158.031 17.4583 157.5 17.125 156.75 17.125C155.896 17.125 155.365 17.4062 155.156 17.9688C154.948 18.5104 154.844 19.9375 154.844 22.25V26.5938ZM158.844 32.2812C156.823 33.7604 155.646 35 155.312 36C155 37 154.844 38.4375 154.844 40.3125C154.844 42.4583 154.979 43.8438 155.25 44.4688C155.542 45.0938 156.104 45.4062 156.938 45.4062C157.729 45.4062 158.24 45.1667 158.469 44.6875C158.719 44.1875 158.844 42.8958 158.844 40.8125V32.2812ZM188.281 10.5312L188.062 14.4688C189.042 12.9062 190.208 11.7396 191.562 10.9688C192.917 10.1771 194.458 9.78125 196.188 9.78125C199.562 9.78125 202.219 11.3438 204.156 14.4688C205.219 12.9062 206.417 11.7396 207.75 10.9688C209.083 10.1771 210.562 9.78125 212.188 9.78125C214.333 9.78125 216.104 10.3021 217.5 11.3438C218.917 12.3854 219.823 13.6667 220.219 15.1875C220.615 16.6875 220.812 19.1354 220.812 22.5312V52H208.562V24.9688C208.562 21.4271 208.438 19.2396 208.188 18.4062C207.958 17.5521 207.406 17.125 206.531 17.125C205.635 17.125 205.052 17.5417 204.781 18.375C204.531 19.2083 204.406 21.4062 204.406 24.9688V52H192.156V25.6562C192.156 21.5938 192.052 19.1562 191.844 18.3438C191.656 17.5312 191.115 17.125 190.219 17.125C189.656 17.125 189.177 17.3438 188.781 17.7812C188.385 18.1979 188.167 18.7188 188.125 19.3438C188.083 19.9479 188.062 21.25 188.062 23.25V52H175.812V10.5312H188.281ZM251.625 10.5312L248 40.5312C247.438 45.2812 246.958 48.5208 246.562 50.25C246.188 51.9792 245.552 53.4062 244.656 54.5312C243.76 55.6562 242.51 56.4792 240.906 57C239.323 57.5417 236.781 57.8125 233.281 57.8125H225.625V51.1875C227.583 51.1875 228.844 51.0938 229.406 50.9062C229.969 50.6979 230.25 50.25 230.25 49.5625C230.25 49.2292 229.99 47.7812 229.469 45.2188L222.562 10.5312H234.031L238.156 38.5L240.156 10.5312H251.625Z" fill="#F0E3CA"/>
</svg>
